<?xml version="1.0" encoding="utf-8" ?><svg xmlns="http://www.w3.org/2000/svg" xmlns:xlink="http://www.w3.org/1999/xlink" width="4096" height="3186" viewBox="0 0 4096 3186"><defs><linearGradient id="gradient_0" gradientUnits="userSpaceOnUse" x1="522.13141" y1="2271.0791" x2="2772.5242" y2="1253.6355"><stop offset="0" stop-color="#3C6A3B"/><stop offset="1" stop-color="#7F9E4D"/></linearGradient></defs><path fill="url(#gradient_0)" d="M1103.52 499.32C1146.13 462.267 1199.53 428.897 1231.13 384.866C1245.7 362.873 1247.11 333.841 1252.42 309.393C1267.29 240.908 1299.85 177.292 1366.1 128.839C1390.38 111.077 1426.51 89.5227 1458.92 81.3372C1455.51 167.817 1429.98 247.633 1356.57 315.198C1342.48 327.782 1326.39 341.585 1313.56 354.779C1321.09 351.124 1353.57 335.917 1358.53 332.53C1370.91 327.322 1391.13 319.161 1401.88 312.871C1436.38 292.688 1456.55 259.227 1487.65 235.59C1563.74 177.761 1663.25 158.936 1763.93 182.373C1771.79 184.262 1779.61 186.271 1787.37 188.401C1770.57 204.181 1756.77 221.252 1739.45 237.369C1685.01 288.027 1623.89 324.401 1537.97 332.709C1506.66 335.737 1465.57 330.321 1444.08 330.639C1412.97 331.099 1332.82 375.83 1311.79 393.598C1352.89 383.218 1400.44 378.432 1442.99 385.908C1500.04 395.933 1565.26 430.812 1595.45 470.019C1533.98 501.795 1465.89 515.994 1392.67 504.558C1344.65 497.059 1311.75 479.726 1271.36 459.637C1261.38 454.674 1245.92 446.099 1235.77 442.146C1192.08 470.224 1129.59 515.233 1094.81 550.26C1082.86 556.73 1053.98 587.033 1046.12 597.701C1053.35 593.974 1082.54 579.205 1086.48 575.28C1143.87 544.985 1197.34 536.236 1266.66 545.611C1304.75 550.762 1351.34 566.77 1378.35 588.807C1335.54 631.679 1266.87 661.317 1197.65 667.844C1128.09 674.403 1068.73 653.395 1002.62 641.025C981.621 660.703 936.663 718.785 919.03 742.395C905.665 753.854 862.525 829.438 852.614 847.35C861.263 841.874 871.467 835.235 876.66 827.423C927.38 776.749 981.443 746.052 1065.13 738.639C1100.99 735.464 1142.92 737.849 1175.87 750.252C1182.69 752.823 1167.27 771.882 1164.7 775.289C1139.42 808.799 1106.33 839.402 1066.26 862.764C1014.22 892.882 960.894 907.062 896.004 907.152C873.187 907.184 843.198 906.84 821.07 909.005C791.643 952.631 727.928 1108.89 722.713 1155.71C731.608 1143.44 742.26 1124.96 750.779 1114.34L752.934 1112.14C765.186 1099.51 774.408 1083.79 787.091 1070.99C845.309 1012.24 916.629 973.596 1014.06 975.704C983.824 1080.93 901.361 1178.07 767.077 1214.95C747.409 1220.36 723.691 1223.76 705.954 1232.06C703.679 1233.25 697.92 1246.29 697.113 1249.83C678.933 1329.54 661.673 1442 668.686 1521.84L669.755 1519.61C676.86 1504.43 682.986 1482.08 687.291 1465.89C713.056 1368.95 787.587 1284.41 911.181 1250.39C911.463 1274.49 909.357 1290.21 904.07 1313.79C875.741 1440.1 802.9 1523.2 668.775 1597.71C673.099 1673.1 677.085 1745.03 694.398 1819.5C697.81 1834.18 702.421 1863.19 708.387 1876.46C709.521 1885.6 715.849 1897.06 720.429 1905.46C721.082 1859.74 715.314 1812.97 724.545 1767.57C727.037 1755.31 730.229 1743.22 732.452 1730.91C753.417 1672.65 787.147 1621.38 841.984 1577.86C848.107 1573 864.283 1561.1 872.207 1559.6C881.464 1565.58 881.544 1585.82 883.049 1595.41C906.174 1742.75 850.761 1853.16 738.93 1969.38C753.904 2034.02 799.548 2129.57 832.801 2191.16C835.206 2198.2 857.628 2242.56 864.321 2245.44C861.028 2228.31 850.382 2208.12 845.376 2190.02C816.356 2105.94 824.958 2016.69 869.77 1936.92C875.083 1927.57 907.024 1878 918.308 1875.36C929.335 1880.18 946.627 1929.84 950.552 1941.08C984.307 2037.68 983.453 2137.1 945.155 2232.99C935.874 2256.23 925.478 2282.56 909.88 2303.67C908.585 2305.42 907.259 2307.16 905.904 2308.88C933.528 2354.97 974.891 2406.99 1012.69 2448.42C1022.01 2458.64 1035.27 2474.67 1045.07 2484C1050.89 2493.04 1091.39 2534.82 1100.99 2542.07L1102.38 2539.76C1095.45 2523.57 1072.01 2493.79 1061.75 2474.91L1060.43 2472.44C1008.77 2393.15 1005.91 2266.81 1041.34 2182.96C1045.61 2172.85 1050.98 2162.16 1055.66 2152.05C1087.51 2181.77 1104.2 2209.88 1124.36 2243.84C1177.3 2333.02 1186.3 2418.74 1174.99 2515.63C1172.44 2537.48 1164.06 2571.36 1163.17 2591.24C1227.05 2648.05 1286.95 2692.52 1369.17 2734.43C1374.4 2737.65 1379.67 2740.83 1384.99 2743.97L1397.59 2751.51C1406.59 2757.16 1415.94 2760.53 1426.17 2764.73C1397.8 2738.12 1368.7 2722.01 1339.35 2689.76C1263.01 2605.89 1239.73 2498.5 1260.04 2398.47C1265.57 2401.63 1272.24 2406.14 1278.6 2407.18C1402 2486.68 1461.25 2600.92 1476.02 2722.43C1477.71 2736.27 1477.13 2782.6 1490.75 2789.35C1562.88 2825.12 1646.17 2848.91 1726.78 2870.35C1738.57 2873.12 1745.18 2875.74 1757.58 2876.3L1758.65 2875.34L1718.95 2855.54C1701.22 2847.29 1684.07 2838.28 1667.6 2828.57C1572.05 2771.67 1531.74 2675.81 1513.21 2586.01C1512.17 2580.98 1511.35 2577.83 1514.8 2574.47C1529.11 2574.06 1570.36 2590.71 1583.96 2596.79C1741.37 2667.08 1786.97 2761.08 1833.7 2886.19C1879.32 2900.98 1930.49 2906.51 1977.83 2917.02C2058.6 2934.96 2155.51 2904.88 2234.65 2886.23C2241.79 2855.35 2271.57 2788 2288.13 2759.95C2338.87 2672.53 2433.07 2604.88 2549.15 2572.51C2542.57 2680.42 2482.72 2779.73 2370.38 2844.39C2363.28 2848.21 2307.89 2874.72 2305.83 2877.46C2320.11 2879.26 2460.86 2837.58 2480.82 2829.29C2511.18 2820.11 2546.59 2804.26 2574.93 2791.46C2589.43 2784.19 2586.83 2758.21 2588.16 2745.16C2601.7 2612.07 2658.48 2479.53 2801.67 2395.52C2806.31 2410.48 2809.47 2425.7 2811.13 2441.04C2819.03 2515.05 2792.33 2614.33 2739.65 2676.12C2724.99 2693.31 2704.99 2711.3 2687.73 2727.2C2672.97 2737.85 2659.58 2749.59 2647.76 2762.26C2663.56 2755.66 2678.99 2748.03 2692.76 2739.05C2700.04 2733.8 2711.96 2726.8 2720.07 2722.15C2787.17 2683.66 2843.45 2639.62 2900.63 2592.77L2903.87 2591.5C2909.16 2583.23 2902.21 2560.06 2900.44 2549.87C2877.64 2418.67 2892.9 2260.74 3008.16 2156.09C3012.36 2161.7 3016.37 2168.35 3019.16 2174.41C3066.87 2278.06 3050.65 2399.91 2988.67 2498C2984.81 2504.11 2969.67 2520.41 2972.95 2526.07C2995.91 2519.39 3158.06 2332.88 3153.24 2310.14C3085.23 2166.82 3059.68 2055.04 3124.68 1906.03C3129.59 1894.76 3133.65 1877.76 3144.82 1869.52C3149.53 1871.28 3149.39 1871.33 3152.4 1875.38C3222.09 1969.25 3250.77 2070.38 3219.44 2177.28C3218.38 2180.87 3217.72 2181.96 3217.08 2185.83L3216.65 2188.66C3211.43 2198.33 3206.62 2216.5 3205.85 2227.08L3207.12 2228.21C3213.27 2220.79 3214.8 2218.83 3218.75 2210.61C3224.14 2201.2 3229.22 2191.68 3233.98 2182.06C3257.69 2135.76 3279.79 2091.48 3299.53 2043.86C3307.31 2025.08 3316.19 1985.51 3323.99 1971.8L3324.49 1974.59C3326.33 1985.47 3321.23 1987.84 3329.5 1997.41C3337.73 2006.91 3344.68 2023.29 3357.62 2028.63C3339.52 2083.61 3308.09 2152.43 3281.04 2204.55C3276.62 2212.53 3266.04 2230.71 3266.88 2239.01C3274.49 2234.59 3291.01 2212.19 3296.71 2204.95C3320.44 2167.58 3372.73 2129.96 3416.1 2105.8C3457.9 2086.45 3498.83 2073.02 3547.09 2066.91C3557.96 2065.54 3577.84 2060.62 3584.9 2068.86C3581.46 2097.15 3526.09 2189.52 3503.25 2217.04C3456.93 2275.11 3405.53 2319.08 3316 2336.58C3281.08 2343.4 3239.29 2343.01 3203.01 2343.43C3178.74 2374.61 3155.42 2406.5 3130.64 2437.29C3104.24 2470.09 3072.65 2501.81 3045.22 2533.9C3041.26 2537.55 3037.09 2541.21 3033.52 2545.07C3023.22 2553.77 3014.1 2563.26 3006.3 2573.41L3009.37 2571.89C3033.47 2559.86 3061.47 2541.12 3084.09 2526.41C3161.93 2475.8 3284.38 2456.61 3378.96 2492.97C3374.31 2499.95 3369.35 2506.15 3364.2 2512.83C3263.43 2643.39 3121.29 2714.06 2929.16 2641.15C2877.02 2682.93 2830.73 2719.16 2771.85 2755.5C2751.36 2768.14 2674.45 2805.01 2665.71 2812.33L2658.62 2816.64L2658.72 2818.73C2682.41 2823.99 2816.95 2724.35 2988.73 2797.87C3012.37 2807.98 3045.82 2824.81 3061.3 2842.07C3062.79 2853.58 3019.27 2873.56 3007.71 2880.05C2858.41 2963.8 2721.71 2950.01 2598.82 2844.98C2556.9 2865.49 2469.13 2889.69 2422.08 2904.24C2407.38 2907.03 2385.85 2913.03 2372.04 2917.56C2473.18 2920 2531.42 2933.51 2607.19 2990.67C2622.64 3002.32 2677.29 3051.29 2677.21 3066.81C2670.48 3073.93 2651.62 3077.45 2640.69 3079.79C2587.56 3091.19 2537.48 3095.43 2482.87 3089.26C2370.94 3076.6 2309.67 3010.36 2247.94 2943.89C2202.63 2949.63 2160.33 2958.01 2114.01 2962.95C2188.75 3000.03 2258.32 3048.1 2302.78 3108.84C2331.18 3147.63 2263.46 3170.66 2247.12 3149.72C2196.03 3084.24 2134.34 3027.99 2042.94 2995.15L2040.71 2994.36C1970.09 3011.37 1898.68 3065.93 1858.66 3112.38C1847.66 3125.15 1823.82 3152.39 1808.76 3160.15C1788.82 3158.75 1769.27 3140.59 1754.77 3129.29C1803.27 3055.21 1861.77 3004.81 1956.38 2964.25C1912.21 2958.19 1863.36 2950.56 1819.78 2945.26C1723.53 3048.19 1638.57 3113.29 1464.33 3085.62C1451.96 3083.65 1397.77 3071.55 1392.7 3065.55C1395.14 3053.03 1435.68 3012.49 1447.81 3002.45C1529.5 2934.82 1583.15 2923.13 1694.52 2917.89C1635.78 2902.06 1579.79 2885.46 1523.59 2864.7C1508.45 2859.11 1490 2852.52 1474.28 2848.51C1470.07 2848.92 1465.95 2850.17 1462.73 2852.29C1430.62 2873.44 1404.71 2891.69 1368.04 2908.8C1314.15 2933.94 1252.7 2941.03 1191.84 2929.13C1132.65 2917.04 1079.23 2895.27 1030.84 2866.46C996.609 2846.08 994.914 2845.88 1026.69 2825.07C1122.78 2762.15 1238.62 2752.63 1349.22 2798.23L1351.12 2799.04C1365.16 2804.31 1384.89 2812.82 1398.9 2815.98L1399.85 2814.76C1391.91 2807.65 1378.54 2801.36 1368.2 2795.92C1365.74 2792.35 1336.4 2777.16 1330.34 2774.32C1253.48 2738.41 1197.88 2689.31 1133.01 2642.51C1081.45 2658.39 1038.27 2672.3 980.849 2671.75C896.655 2670.95 838.166 2639.56 780.898 2594.51C761.393 2579.16 685.08 2511.23 685.281 2494.34C694.106 2488.21 721.412 2483.55 733.111 2481.39C820.149 2465.33 904.774 2480.95 974.541 2524.18C998.313 2538.91 1031.05 2563.36 1055.73 2575.07L1058.57 2576.4C1050.58 2566.84 1035.01 2551.91 1025.79 2542.36C1004.31 2520.35 983.509 2497.96 963.401 2475.18C926.359 2432.77 894.763 2387.03 860.496 2342.96C797.506 2342.96 743.915 2342.34 685.01 2317.99C574.974 2272.51 521.701 2170.59 483.628 2083.41C481.21 2077.88 479.352 2073.16 482.637 2068.34C492.014 2064.27 508.753 2067.44 519.397 2069.33C637.853 2090.41 694.706 2126.69 759.708 2201.35C775.412 2221.86 793.784 2247.22 811.287 2266.29C808.378 2259.71 793.907 2225.38 789.117 2222.8C745.45 2149.46 710.426 2052.31 682.56 1974.9C614.797 1952.18 570.219 1935.35 517.426 1891.79C444.52 1831.62 389.812 1680.21 395.509 1598.25C405.882 1600.26 416.05 1602.87 425.93 1606.04C511.33 1633.68 581.447 1710.9 614.928 1775.37L621.632 1788.35L627.113 1801.25C638.092 1828.05 646.049 1856.4 656.924 1883.87C656.576 1868.31 644.745 1802.26 639.916 1786.69C639.403 1772.42 632.409 1736.77 630.391 1720.6C624.176 1673.53 620.104 1626.31 618.183 1579.01C577.547 1550.15 547.214 1529.97 514.619 1493.07C444.138 1413.27 432.744 1315.68 438.939 1221.59C439.92 1206.68 442.696 1161.54 453.142 1151.31C458.382 1151.55 460.818 1152.81 465.256 1155.64C564.796 1219.26 595.873 1307.95 614.489 1400.6C613.574 1405.41 620.984 1441.04 622.283 1448.18C625.095 1433.68 634.008 1372.82 631.827 1360.23C639.187 1304.54 651.547 1245.54 657.008 1190.55C614.945 1138.21 585.44 1103.78 571.087 1039.22C553.563 960.4 567.197 873.392 601.386 798.191C606.197 787.61 616.592 767.269 624.524 758.419L628.681 759.278C637.983 766.414 655.2 793.068 661.082 803.028C692.671 856.517 704.015 912.039 705.626 970.226C706.135 985.628 705.718 1001.04 704.377 1016.41C703.376 1026.49 692.402 1083.53 695.031 1087.77C703.455 1078.81 715.099 1038.79 720.659 1025.38C743.43 970.447 767.126 913.077 797.873 860.439C780.83 832.589 766.29 776.139 758.737 744.175C736.707 650.944 781.412 539.839 846.027 460.993C849.419 456.853 853.556 454.07 859.645 453.381C864.634 456.042 866.504 462.011 868.779 466.73C869.175 483.29 887.795 522.088 891.261 545.406C899.574 599.42 894.741 654.169 877.017 706.793C870.094 726.984 859.195 749.651 853.335 768.93C865.83 758.185 873.206 750.248 881.413 736.956L894 719.231C905.463 704.146 917.303 689.235 929.513 674.508C949.338 650.645 990.68 607.072 987.818 577.895C984.265 541.674 983.215 511.795 986.734 475.532C996.647 373.405 1040.64 289.98 1142.47 223.218C1143.26 225.549 1143.97 227.894 1144.61 230.253C1165.77 307.399 1146.88 425.032 1091.11 491.227C1078.32 508.197 1065.89 524.411 1054.49 541.987C1071.34 529.258 1088.52 513.489 1103.52 499.32Z"/><path fill="#82A14E" d="M3416.1 2105.8C3457.9 2086.45 3498.83 2073.02 3547.09 2066.91C3557.96 2065.54 3577.84 2060.62 3584.9 2068.86C3581.46 2097.15 3526.09 2189.52 3503.25 2217.04C3499.19 2216.56 3496.18 2216.05 3492.18 2215.37L3442.31 2148.73C3434 2137.59 3416.32 2117.84 3416.1 2105.8Z"/><defs><linearGradient id="gradient_1" gradientUnits="userSpaceOnUse" x1="1492.8969" y1="1973.0814" x2="4050.3796" y2="920.92053"><stop offset="0" stop-color="#48763B"/><stop offset="1" stop-color="#96B254"/></linearGradient></defs><path fill="url(#gradient_1)" d="M2667.16 942.848C2687.4 878.646 2718.53 778.112 2759.82 720.042C2866.7 569.689 3075.56 455.565 3259.56 367.155C3370.71 313.749 3489.29 265.169 3621.26 255.641C3521 372.067 3443.76 452.59 3376.15 586.56C3288.42 760.379 3273.21 966.252 3098.21 1103.11C3034.99 1151.4 2961.18 1188.01 2885.03 1223.01C2855.45 1236.6 2829.83 1245.55 2801 1261.14C2805.24 1263.37 2809.92 1261.98 2816.12 1261.01C2917.9 1245.05 2996.68 1222.79 3087.01 1184.56C3045.75 1330.32 2962.22 1498.58 2837.28 1613.91C2762.8 1682.66 2640.71 1735.83 2536.86 1772.1C2514.98 1779.74 2491.39 1786.81 2470.11 1795.16C2584.02 1799.01 2679.32 1776.69 2776.4 1730.01C2768.62 1747.15 2746.95 1775.52 2734.45 1791.58C2653.89 1895.67 2535.81 1979.07 2394.85 2031.43C2369.52 2040.87 2353.57 2046.95 2326.69 2054.46C2302.68 2062 2275.93 2065.25 2253.17 2074.85C2245.99 2077.88 2243.68 2081.88 2241.49 2087.78C2203.71 2189.48 2160.01 2289.74 2126.02 2392.29C2113.31 2430.62 2108.64 2470.75 2090.1 2507.71C2083.08 2521.54 2062.07 2541.7 2050.26 2554.27C2035.92 2569.79 2021.98 2585.53 2008.45 2601.49C1993.42 2619.5 1973.22 2650.81 1958.7 2666.08L1954.67 2667.05C1949.33 2658.7 1959.42 2627.19 1961.84 2616.8C1985.1 2516.81 2026.66 2419.14 2066.91 2322.68C2079.22 2293.18 2089.63 2262.85 2102.37 2233.25C2253.06 1878.31 2441.22 1533.67 2664.93 1202.86C2694.72 1159.98 2725.07 1117.34 2755.98 1074.95C2766.86 1059.73 2796.51 1016.57 2807.85 1004.42C2822.5 983.476 2840.4 961.831 2856.73 941.29C2925.28 855.071 2994.46 767.92 3072.69 686.818C3099.74 658.776 3127.42 626.001 3157.25 600.455C3162.33 597.984 3172.83 586.278 3177.07 581.929C3185.07 577.492 3197.23 561.081 3202.19 554.102C3190.76 561.053 3180.53 568.331 3171.83 577.41C3166.16 582.416 3150.96 595.272 3146.91 600.129C3104.56 641.802 3053.17 685.35 3009.13 727.595C2943.79 791.419 2882.54 857.707 2825.59 926.218C2806.3 949.212 2778.47 981.495 2761.22 1005.14C2644.56 1157.43 2537.17 1313.9 2439.39 1474.04C2386.03 1561.98 2334.67 1650.65 2285.36 1740.02C2266.32 1773.77 2154.11 2008.61 2136.56 2021.79L2132.79 2022.13C2108.58 2005.25 2086.55 1866.29 2084.5 1831.94C2080.72 1768.54 2084.14 1711.95 2096.52 1645.61C2107.11 1588.88 2125.69 1497.98 2160.41 1442.65C2160.89 1442.24 2161.37 1441.83 2161.85 1441.42C2164.58 1447.45 2163.75 1456.3 2164.13 1462.9C2167.83 1527.19 2175.22 1589.49 2193.87 1652.24C2197.79 1664.76 2202.26 1676.45 2206.97 1688.78C2208.42 1672.25 2206.51 1648.83 2206.73 1631.6C2207.24 1592.17 2206.92 1552.03 2209.82 1512.66C2213.35 1494.61 2212.96 1472.23 2216.02 1453.49C2244.74 1277.27 2332.93 1119.45 2458.59 972.046C2513.48 907.661 2565.55 847.964 2637.11 792.474C2648.88 787.443 2664.12 774.117 2677.98 766.978C2665.24 830.762 2641.16 917.526 2657.61 981.391C2660 974.065 2668.98 949.135 2667.16 942.848Z"/><defs><linearGradient id="gradient_2" gradientUnits="userSpaceOnUse" x1="1130.5686" y1="1973.0795" x2="2777.73" y2="1012.5546"><stop offset="0" stop-color="#46713E"/><stop offset="1" stop-color="#759748"/></linearGradient></defs><path fill="url(#gradient_2)" d="M2016.47 613.618C2187.82 610.771 2338.62 650.112 2482.27 720.933C2512.17 735.677 2583.59 770.346 2549.35 806.095C2535.21 820.86 2517.21 829.224 2493.17 824.542C2444.57 815.073 2403.59 789.587 2360.25 771.007C2225.47 713.019 2071.53 693.651 1920.1 712.547C1703.92 739.522 1534.22 843.155 1409.02 979.183C1215.76 1189.15 1145.16 1471.18 1196.1 1724.3C1240.58 1945.3 1376.05 2165.42 1612.85 2298.88C1724.99 2360.09 1834.43 2390.39 1969.17 2406.29C1963.77 2425.08 1950.93 2474.29 1938.73 2488.9C1926.21 2496.07 1877.48 2487.7 1861.33 2484.57C1389.53 2393.27 1126.13 2013.22 1093.06 1658.62C1066.5 1373.84 1157.66 1081.33 1398.29 861.073C1414.25 846.468 1426.78 829.602 1443.2 815.27C1483.56 781.711 1529.4 751.71 1578.89 726.591C1722.88 651.839 1846.32 622.112 2016.47 613.618Z"/><path fill="#598341" d="M1640.61 1606.3C1649.16 1610.57 1660.65 1633.66 1665.41 1641.94L1709.65 1719.49C1767.83 1821.01 1825.32 1922.78 1882.11 2024.78L1973.23 2183.57C1987.36 2208.22 2004.46 2237.54 2016.1 2262.65C2021.6 2274.52 2013.79 2310.86 2008.95 2323.2C2006.59 2329.22 2003.18 2337.64 1994.78 2339.99C1954.76 2351.2 1859.21 2327.34 1823.52 2316.88C1676.3 2278.54 1548.31 2194.68 1457.27 2098.43C1443.47 2083.55 1413.71 2055.67 1409.22 2038.15C1402.09 2010.34 1439.32 1951.09 1453.12 1925.92C1473.57 1888.26 1494.57 1850.78 1516.11 1813.48C1547.71 1758.08 1577.34 1702.23 1613.4 1648.53C1622.33 1635.23 1631.32 1618.72 1640.61 1606.3Z"/><path fill="#598341" d="M1883.04 787.585C1893.82 786.458 1902.79 789.023 1911.35 794.046C1923.67 801.277 1932.16 815.524 1939.27 825.987C1970.7 872.191 2138.88 1155.4 2143.23 1186.94C2143.68 1190.27 2143.61 1190.46 2140.86 1192.92C2135.09 1198.07 2123.58 1202.21 2114.97 1203.08C2073.32 1207.31 2017.93 1203.62 1974.56 1203.72C1854.7 1204.22 1734.84 1203.53 1615 1201.65C1531.92 1201.27 1436.22 1203.47 1355.23 1192.26C1317.09 1186.98 1402.23 1079.22 1412.64 1066.44C1520.68 933.809 1682.78 823.393 1883.04 787.585Z"/><path fill="#598341" d="M1528.86 1245.39C1592.45 1244.26 1656.33 1242.64 1719.85 1246C1747.8 1247.47 1780.94 1249.78 1766.74 1278.99C1737.18 1339.82 1699.28 1397.89 1665.32 1457.21L1405.08 1902.19C1391.45 1925.31 1379.27 1947.19 1361.1 1968.51C1333.98 1931.88 1302.97 1858.69 1288.9 1816.36C1238.5 1664.71 1232.64 1495.21 1277.6 1342.25C1284.58 1318.49 1295.29 1282.63 1310.29 1262.34C1347 1242.22 1475.98 1248.15 1528.86 1245.39Z"/><path fill="#8CA952" d="M3355.93 954.207C3364.44 894.633 3377.8 837.347 3417.42 784.746C3422.61 777.856 3430.36 766.314 3437.83 761.331C3450.63 760.313 3457.44 786.11 3461.33 794.62C3510.59 902.408 3520.97 1026.6 3450.26 1130.3C3438.71 1147.26 3420.8 1168.79 3414.33 1187.88C3406.1 1242.25 3420.66 1317.02 3431.66 1371.02C3431.82 1380.71 3434.28 1425.14 3441.29 1430.64C3446.43 1424.71 3451.57 1389.05 3452.3 1380.41C3475.83 1292.97 3509.67 1203.11 3611.86 1150.18L3614.39 1148.9C3618.9 1178.97 3625.21 1209.31 3626.1 1239.49C3628.96 1336.6 3606.11 1438.29 3523.63 1514.75C3504.75 1532.25 3485.22 1547.96 3462.94 1562.77C3456.84 1566.92 3447.05 1573.01 3443.08 1578.16C3427.5 1587.37 3439.4 1590.56 3431.92 1601.58C3428.1 1602.22 3427 1602.29 3423.08 1602.45C3416.46 1610.48 3420.19 1615.86 3413.84 1620.14L3410.33 1618.62C3406.77 1622.53 3403.97 1648.4 3400.32 1657.76L3398.92 1657.11C3398.09 1644.28 3402.32 1608.15 3395.77 1601.7L3389.81 1601.04C3309.51 1548.32 3243.96 1507.97 3199.27 1425.06C3181.57 1392.24 3141.52 1291.49 3148.97 1251.05C3151.16 1239.21 3209.11 1268.1 3219.44 1273.21C3318.18 1322.03 3357.59 1403.46 3381.67 1488.36C3383.06 1495.43 3387.58 1518.46 3392.55 1522.99C3399.84 1511.78 3392.18 1403.85 3387.95 1385.94C3387.25 1350.32 3367.97 1261.26 3345.91 1230.64C3335.69 1226.6 3318.32 1222.23 3307.08 1218.94C3265.23 1206.68 3222.62 1194.47 3189.55 1170.08C3180.34 1164.32 3176.17 1156.62 3176.37 1147.29C3177.26 1127.94 3188.9 1108.85 3200.93 1091.75C3210.9 1077.56 3232.08 1047.91 3256.26 1047.93C3264.2 1047.93 3271.68 1056.39 3276.6 1061.06C3301.14 1086.11 3319.93 1126.66 3334.07 1156.22C3331.06 1115.41 3320.25 1093.13 3304.98 1054.34L3289.95 1008.02C3285.45 993.698 3282.71 982.492 3279.66 967.919C3284.24 958.64 3288.42 942.318 3304.05 945.379C3315.78 953.956 3324.51 980.264 3330.01 993.209C3334.48 1003.24 3338.85 1013.3 3343.1 1023.4C3345.05 1030.18 3354.66 1053.96 3360.69 1057.33C3363.71 1047.82 3357.24 1025.91 3356.38 1015.18C3354.76 994.961 3357.25 974.181 3355.93 954.207ZM3391.67 1165.08C3389.79 1153.16 3371.23 1080.26 3364.82 1073.98L3361.08 1072.45C3360.3 1083.53 3378.1 1150.45 3387.41 1163.11C3387.78 1163.61 3390.64 1164.68 3391.67 1165.08Z"/><path fill="#B5C88C" fill-opacity="0.65490198" d="M3361.08 1072.45L3364.82 1073.98C3371.23 1080.26 3389.79 1153.16 3391.67 1165.08C3390.64 1164.68 3387.78 1163.61 3387.41 1163.11C3378.1 1150.45 3360.3 1083.53 3361.08 1072.45Z"/><path fill="#598341" d="M2960.28 1571.96C2963.05 1572.27 2963.61 1572.59 2966.25 1573.34C2976.86 1591.38 2971.94 1647.29 2969.79 1669.24C2955.85 1829.3 2893.96 1984.59 2789.08 2122.72C2639.3 2317.44 2459.9 2434.77 2176.25 2490.25C2158.48 2481.11 2163.04 2413.22 2180.96 2400.4C2192.04 2392.47 2213.47 2387.93 2228.07 2384.46C2368.48 2351.07 2498.27 2282.89 2595.06 2196.7C2713.99 2091.45 2798.54 1965.44 2841.54 1829.37C2862.39 1765.72 2865.41 1694.44 2901.8 1637.76C2914.11 1618.58 2943.13 1590.75 2960.28 1571.96Z"/><path fill="#82A14E" d="M3185.62 1556.22C3207.55 1567.77 3226.08 1584.16 3243.11 1599.7L3249.59 1606.07C3284.74 1641.4 3298.2 1663.36 3319.12 1704.67C3336.05 1752.52 3342.08 1789.57 3341.16 1839.38C3340.75 1861.57 3338.01 1893.21 3339.82 1914.85C3344.09 1905.97 3352.05 1889.13 3351.2 1879.72C3354.68 1864.63 3358.04 1849.52 3361.28 1834.4C3375.25 1776.7 3384.02 1718.32 3387.53 1659.67C3388.74 1643.04 3391.25 1616.85 3389.81 1601.04L3395.77 1601.7C3402.32 1608.15 3398.09 1644.28 3398.92 1657.11L3400.32 1657.76C3403.97 1648.4 3406.77 1622.53 3410.33 1618.62L3413.84 1620.14C3420.19 1615.86 3416.46 1610.48 3423.08 1602.45C3427 1602.29 3428.1 1602.22 3431.92 1601.58C3439.4 1590.56 3427.5 1587.37 3443.08 1578.16C3439.69 1593.91 3439.85 1616.39 3439.03 1633.19C3437.79 1656.19 3436 1679.18 3433.66 1702.13C3431.73 1721.21 3429.03 1740.24 3425.58 1759.19C3424.16 1767.37 3420.23 1786.13 3420.1 1793.47C3418.71 1798.37 3416.18 1805.79 3416.21 1810.58C3412.67 1821.88 3403.31 1859.81 3405.98 1870.22C3410.13 1861.84 3423.46 1834.38 3423.45 1826.39C3426.71 1819.86 3429.73 1812.21 3432.61 1805.5C3460.55 1727.98 3559.36 1613.21 3667.12 1596.63C3660.99 1703.06 3624.62 1832.84 3520.74 1908.23C3476.35 1940.45 3432.71 1953.67 3378.88 1972.4C3370.52 1990.73 3364.24 2009.85 3357.62 2028.63C3344.68 2023.29 3337.73 2006.91 3329.5 1997.41C3321.23 1987.84 3326.33 1985.47 3324.49 1974.59L3323.99 1971.8C3311.15 1957.63 3297.56 1943.99 3284.75 1929.55C3188.92 1820.41 3153.22 1685.97 3185.62 1556.22Z"/><path fill="#8CA952" d="M3249.59 1606.07C3249.63 1611.24 3250.48 1611.33 3247.52 1615.46C3236.61 1615.49 3227.85 1606.11 3233.69 1599.28L3243.11 1599.7L3249.59 1606.07Z"/><path fill="#8CA952" d="M3424.28 1660.44L3427.95 1662.31C3432.6 1671.13 3431.01 1715.37 3423.42 1723.66C3412.44 1712.62 3420.92 1673.9 3424.28 1660.44Z"/><path fill="#8CA952" d="M3610.44 1773.02L3613.34 1775.42C3615.22 1780.53 3612.41 1784.6 3610.15 1789.87L3607.69 1787.91C3606.1 1782.48 3608.44 1778.49 3610.44 1773.02Z"/><path fill="#8CA952" d="M2725.19 332.928C2655.7 271.045 2624.37 218.343 2612.07 136.925C2610.2 124.497 2602.01 96.3306 2605.32 85.2311C2618.5 80.3794 2644.88 95.5792 2656.15 101.797C2709.79 131.415 2752.04 171.846 2778.35 218.743C2792.21 242.884 2802.43 268.196 2808.78 294.171C2819.4 337.554 2814.83 371.345 2850.02 409.32C2875.86 437.208 2908.36 457.782 2936.65 482.76C2925.33 489.343 2919.89 492.143 2906.17 496.287C2875.97 481.234 2856.69 462.177 2829.03 445.636C2822.91 441.973 2775.41 468.836 2768.72 472.193C2685.04 514.171 2581.5 521.45 2493.97 481.828C2486.19 478.421 2478.69 476.378 2474.31 470.631C2472.45 458.565 2494.83 445.851 2505.55 437.984C2577.99 384.834 2652.78 373.549 2746.82 392.911C2715.05 369.015 2668.95 347.523 2631.16 328.841C2603.22 329.636 2576.03 332.575 2548.27 333.769C2439.53 338.449 2325.22 258.44 2276.42 187.988C2407.9 157.865 2516.53 172.462 2602.95 261.73C2615.52 274.72 2626.95 289.258 2642.23 300.322C2661.84 315.107 2702 330.389 2720.37 342.95C2726.21 346.422 2748.16 355.086 2755.82 358.27C2748.83 351.409 2734.47 337.413 2725.19 332.928Z"/><path fill="#598341" d="M1988.15 769.063C2128.16 766.882 2220.19 781.349 2347.95 830.815C2372.88 840.471 2431.44 862.221 2439.4 882.537C2441.65 889.116 2438.69 898.978 2435.26 905.001C2398.13 970.232 2344.07 1030.11 2301.65 1093.28C2284.6 1112.48 2248.31 1181.97 2224.46 1190.44C2204.96 1186.94 2173.47 1122.98 2163.57 1106.1C2133.16 1054.87 2103.2 1003.47 2073.68 951.927C2042.75 898.758 2007.77 846.863 1979.3 792.814C1973.81 782.379 1975.73 775.069 1988.15 769.063Z"/><path fill="#598341" d="M2721.67 1908.57C2729.93 1909.51 2727.3 1907.93 2731.57 1911.74C2730.94 1926.83 2695.45 1979.82 2685.01 1995.41C2586.74 2142.17 2435.66 2273.05 2226.23 2322.62C2212.97 2320.26 2213.46 2313.18 2215.64 2304.08C2229.12 2247.8 2253.31 2188.8 2285.31 2137.28C2298.63 2115.84 2346.97 2111.02 2373.39 2102.28C2452.63 2076.06 2528.36 2039.56 2595.29 1997.51C2630.3 1975.19 2678.03 1917.03 2721.67 1908.57Z"/><path fill="#598341" d="M1903.3 1913.79C1937.09 1913.27 1997.9 1911.32 2028.83 1916.7C2030.29 1918.61 2031.68 1920.55 2032.98 1922.53C2046.09 1942.21 2047.94 1960.59 2055.59 1980.51C2092.08 2075.46 2095.39 2103.54 2057.57 2196.22C2055.55 2201.3 2054.8 2204.84 2050.29 2208.82L2047.75 2207.75C2027.98 2184.46 1892.06 1942.8 1894.9 1923.35C1895.63 1918.35 1898.93 1916.91 1903.3 1913.79Z"/><path fill="#6D6D6D" fill-opacity="0.023529412" d="M612 1586C594.841 1572.14 575.575 1560.58 557.749 1546.91C440.829 1457.27 418.576 1326.02 432.056 1204.53C433.89 1188 437.406 1159.55 446.033 1145.06C449.228 1143.76 453.499 1142.16 457.05 1143.85C534.705 1180.69 581.243 1254.15 602.481 1320.95C606.591 1333.88 613.954 1368.85 618.129 1374.99L621.557 1374.61C623.854 1370.21 623.073 1372.49 622.135 1367.18C612.065 1362.61 623.586 1362.16 623.956 1358.76C625.624 1343.41 623.679 1328.2 626.598 1312.82C628.402 1303.31 632.858 1294.83 634.557 1285.55C632.829 1279.63 632.123 1275.12 634.771 1269.16C644.374 1247.53 645.292 1220.2 648.087 1197.35C648.911 1190.61 637.648 1183.94 631.909 1179.97C631.333 1168.56 627.08 1169.32 619.425 1159.96C563.149 1091.17 549.215 1004.43 557.448 924.235C561.075 888.9 589.097 771.049 621.977 750.142C639.297 748.626 645.015 762.679 652.447 772.867C668.892 795.412 680.215 820.23 693.638 843.977C689.953 856.426 697.413 860.169 700.31 872.219C708.087 904.564 714.955 938.906 714.117 971.801C713.946 978.541 716.739 979.576 715.331 985.645C714.034 990.547 713.472 991.15 718.551 993.698C724.974 989.65 722.994 981.394 725.266 980.438C735.825 975.995 725.894 963.934 730.692 956.02C732.671 952.756 744.527 953.089 744.557 948.427C744.657 932.686 746.082 931.009 759.526 920.046C764.942 914.232 762.436 895.182 771.883 885.729C795.5 862.099 782.821 849.031 769.979 825.236C774.803 814.828 767.075 808.518 763.636 798.563C760.221 788.678 758.207 778.318 755.131 768.502C733.939 700.89 744.76 631.082 773.139 565.79C777.221 557.83 783.545 533.246 788.155 527.957C799.855 514.534 806.128 500.27 811.239 487.517C815.813 476.1 844.58 448.085 859.183 443.829C863.837 444.168 864.608 443.422 866.618 445.722C873.772 453.913 879.304 471.036 882.847 480.702C901.243 529.213 908.14 579.923 903.202 630.355C901.252 649.541 895.991 669.45 894.411 688.651C893.558 699.016 894.788 708.315 894 719.231L881.413 736.956C875.801 740.503 870.61 745.089 865.609 749.232C896.761 672.603 910.696 595.133 888.414 515.446C886.231 507.639 872.941 471.132 868.779 466.73C866.504 462.011 864.634 456.042 859.645 453.381C853.556 454.07 849.419 456.853 846.027 460.993C781.412 539.839 736.707 650.944 758.737 744.175C766.29 776.139 780.83 832.589 797.873 860.439C767.126 913.077 743.43 970.447 720.659 1025.38C715.099 1038.79 703.455 1078.81 695.031 1087.77C692.402 1083.53 703.376 1026.49 704.377 1016.41C705.718 1001.04 706.135 985.628 705.626 970.226C704.015 912.039 692.671 856.517 661.082 803.028C655.2 793.068 637.983 766.414 628.681 759.278L624.524 758.419C616.592 767.269 606.197 787.61 601.386 798.191C567.197 873.392 553.563 960.4 571.087 1039.22C585.44 1103.78 614.945 1138.21 657.008 1190.55C651.547 1245.54 639.187 1304.54 631.827 1360.23C624.394 1366.81 630.97 1393.84 619.203 1410.29C617.676 1404.93 618.628 1404.01 614.489 1400.6C595.873 1307.95 564.796 1219.26 465.256 1155.64C460.818 1152.81 458.382 1151.55 453.142 1151.31C442.696 1161.54 439.92 1206.68 438.939 1221.59C432.744 1315.68 444.138 1413.27 514.619 1493.07C547.214 1529.97 577.547 1550.15 618.183 1579.01C620.104 1626.31 624.176 1673.53 630.391 1720.6C632.409 1736.77 639.403 1772.42 639.916 1786.69C639.392 1792.96 640.175 1805.34 637.321 1809.42C631.512 1807.45 631.511 1805.84 627.113 1801.25L621.632 1788.35C621.034 1776.75 628.891 1774.34 627.519 1765.22C618.599 1705.85 611.686 1645.77 612 1586Z"/><path fill="#8CA952" d="M2920.94 225.868C2968.01 239.313 3067.72 364.746 3056.52 408.033C3052.86 422.183 3028.77 432.803 3015.08 440.038C3003.99 445.519 2968.54 463.889 2957.17 462.983C2911.18 444.523 2900.3 264.558 2920.94 225.868Z"/><path fill="#A9A9A9" fill-opacity="0.027450981" d="M2901.85 2591.74L2893.92 2588.49C2888.01 2588.73 2884.45 2589.9 2878.9 2591.31C2881.3 2587.07 2895.93 2581.9 2896.24 2574.12C2893.67 2571.19 2891.73 2568.93 2889.45 2565.86C2894.81 2557.11 2887.6 2536.39 2886.57 2525.33C2882.48 2479.61 2881.79 2433.75 2884.51 2387.97C2885.75 2369.38 2892.21 2341.51 2897.18 2322.92C2898.13 2317.58 2908.48 2295.32 2907.14 2290.65C2902.13 2273.23 2998.24 2120.45 3017.92 2151.46C3057.65 2214.07 3062.47 2302.7 3049.98 2371.68C3047.17 2387.22 3040.75 2403.78 3038.48 2419.45C3037.46 2435.5 3029.94 2433.38 3028.27 2443.05C3032.51 2443.89 3036.77 2444.68 3041.05 2445.42C3042.54 2441.49 3042.04 2441.46 3045.25 2438.23C3075.18 2408.14 3104.6 2373.61 3125.86 2339.24C3127.84 2336.03 3140.43 2316.18 3140.28 2315.64C3132.51 2287.07 3104.56 2224.53 3094.08 2199.64C3094.75 2197.98 3096.71 2192.53 3096.2 2191.06C3066.41 2105.25 3077.61 2013.09 3107.38 1928.22C3111.55 1916.33 3115.72 1900.6 3122.94 1890.24C3122.09 1886.18 3120.89 1883.22 3122.47 1879.35C3126.81 1876.99 3128.34 1876.04 3132.24 1873.26C3134.5 1865.23 3133.51 1861.77 3143.47 1858.53C3145.14 1858.9 3149.19 1859.95 3150.19 1861.06C3213.51 1931.59 3246.33 2025.01 3239.68 2110.79C3237.45 2139.6 3232.39 2155.85 3233.98 2182.06C3229.22 2191.68 3224.14 2201.2 3218.75 2210.61L3215.69 2208.89C3212.96 2202.62 3216.62 2199.18 3216.66 2191.62L3216.65 2188.66L3217.08 2185.83C3217.72 2181.96 3218.38 2180.87 3219.44 2177.28C3250.77 2070.38 3222.09 1969.25 3152.4 1875.38C3149.39 1871.33 3149.53 1871.28 3144.82 1869.52C3133.65 1877.76 3129.59 1894.76 3124.68 1906.03C3059.68 2055.04 3085.23 2166.82 3153.24 2310.14C3132.11 2354.47 3039.45 2463.31 2993.54 2502.96C2992.79 2503.19 2992.04 2503.42 2991.28 2503.66C2989.92 2499.67 3005.65 2475.03 3009.05 2468.7C3053.37 2386.38 3062.58 2287.49 3034.19 2200.99C3029.96 2188.12 3020.8 2162.88 3009.73 2155.94L3004.41 2155.12C2994.15 2161.55 2983.87 2176.81 2976.37 2185.64C2893.83 2282.68 2880.31 2398.82 2891.24 2511.92C2892.91 2529.28 2904.75 2579.55 2901.85 2591.74Z"/><path fill="#6D6D6D" fill-opacity="0.015686275" d="M3146.91 600.129L3153.42 598.412L3157.25 600.455C3127.42 626.001 3099.74 658.776 3072.69 686.818C2994.46 767.92 2925.28 855.071 2856.73 941.29C2840.4 961.831 2822.5 983.476 2807.85 1004.42C2797.44 1002.28 2800.51 1001.73 2791.35 1003.77C2783.48 1009.96 2785.92 1012.65 2775.71 1017.03L2772.88 1016.82L2770.4 1014.13C2767 1016.55 2767.28 1016.44 2765.63 1019.82L2764.13 1020.34C2762.93 1014.99 2761.96 1010.53 2761.22 1005.14C2778.47 981.495 2806.3 949.212 2825.59 926.218C2882.54 857.707 2943.79 791.419 3009.13 727.595C3053.17 685.35 3104.56 641.802 3146.91 600.129Z"/><path fill="#A9A9A9" fill-opacity="0.015686275" d="M724.545 2157.76C726.411 2152.84 725.349 2155.1 731.943 2150.96C735.201 2151.83 736.84 2156.25 738.957 2159.55C741.074 2133.12 693.531 2051.32 688.749 2019.36C687.204 2009.04 680.056 1989.55 674.266 1980.19C672.143 1976.75 659.178 1980.86 656.669 1976.93C637.573 1965.61 612.037 1958.29 591.483 1949.15C549.902 1930.67 518.284 1907.1 490.082 1877.36C479.32 1865.82 469.632 1853.7 461.092 1841.08C457.722 1836 452.788 1822.31 449.426 1819.87C438.427 1811.88 440.577 1802.74 433.534 1792.32C415.938 1766.29 371.878 1610.52 391.273 1592.9C402.629 1591.59 406.297 1594.89 416.288 1595.68C449.886 1598.32 465.468 1610.99 490.728 1625.7C496.917 1629.65 506.164 1633.57 511.03 1638.29C535.022 1661.54 562.461 1683.98 582.504 1709.56C591.24 1720.71 625.05 1761.69 622.181 1772.87L614.928 1775.37C581.447 1710.9 511.33 1633.68 425.93 1606.04C416.05 1602.87 405.882 1600.26 395.509 1598.25C389.812 1680.21 444.52 1831.62 517.426 1891.79C570.219 1935.35 614.797 1952.18 682.56 1974.9C710.426 2052.31 745.45 2149.46 789.117 2222.8C786.345 2224.27 788.072 2223.63 783.67 2224.18C775.385 2217.81 771.253 2208.31 763.895 2200.73L761.835 2198.65C749.567 2183.95 737.972 2171.76 724.545 2157.76Z"/><path fill="#A9A9A9" fill-opacity="0.05882353" d="M2753.99 2769.35C2775.58 2778.38 2805.91 2765.51 2829.21 2763.92C2848.7 2762.58 2866.45 2763.06 2885.86 2764.87C2939.65 2765.66 2999.79 2785.14 3038.17 2813.88C3047.62 2820.95 3079.91 2840.9 3071.46 2848.96C3046.71 2872.57 3003.73 2895.08 2967.67 2908.06C2956.02 2912.26 2952.07 2918.64 2939.39 2920.67C2860.34 2944.78 2781.41 2952.69 2703.53 2920.29C2672.79 2907.51 2640.15 2888.33 2614.88 2869.24C2606.32 2862.77 2599.61 2855.22 2587.25 2859.2C2551.79 2870.59 2517.73 2884.37 2482.13 2895.53C2466.85 2900.63 2437.08 2907.15 2428.74 2910.68L2424.73 2909.54L2422.08 2904.24C2469.13 2889.69 2556.9 2865.49 2598.82 2844.98C2721.71 2950.01 2858.41 2963.8 3007.71 2880.05C3019.27 2873.56 3062.79 2853.58 3061.3 2842.07C3045.82 2824.81 3012.37 2807.98 2988.73 2797.87C2816.95 2724.35 2682.41 2823.99 2658.72 2818.73L2658.62 2816.64L2665.71 2812.33C2680.08 2808.9 2737.59 2777.91 2753.99 2769.35Z"/><path fill="#F5F7F3" fill-opacity="0.27843139" d="M858.406 2346.12C799.211 2346.99 744.94 2344.55 690.667 2323.71C576.984 2280.04 522.146 2179.76 482.894 2091.52C479.224 2083.27 474.068 2073.66 478.904 2065.96C482.463 2064.11 486.222 2062.6 490.719 2062.98C585.065 2071.04 661.87 2103.21 724.545 2157.76C737.972 2171.76 749.567 2183.95 761.835 2198.65L759.708 2201.35C694.706 2126.69 637.853 2090.41 519.397 2069.33C508.753 2067.44 492.014 2064.27 482.637 2068.34C479.352 2073.16 481.21 2077.88 483.628 2083.41C521.701 2170.59 574.974 2272.51 685.01 2317.99C743.915 2342.34 797.506 2342.96 860.496 2342.96C894.763 2387.03 926.359 2432.77 963.401 2475.18C983.509 2497.96 1004.31 2520.35 1025.79 2542.36C1035.01 2551.91 1050.58 2566.84 1058.57 2576.4L1055.73 2575.07C1031.05 2563.36 998.313 2538.91 974.541 2524.18C904.774 2480.95 820.149 2465.33 733.111 2481.39C721.412 2483.55 694.106 2488.21 685.281 2494.34C685.08 2511.23 761.393 2579.16 780.898 2594.51C838.166 2639.56 896.655 2670.95 980.849 2671.75C1038.27 2672.3 1081.45 2658.39 1133.01 2642.51C1197.88 2689.31 1253.48 2738.41 1330.34 2774.32C1336.4 2777.16 1365.74 2792.35 1368.2 2795.92C1364.17 2796.22 1360.41 2793.53 1356.01 2791.49C1264.06 2748.71 1207.84 2702.66 1132.03 2646.14C1119.19 2650.32 1106.25 2654.32 1093.21 2658.12C956.257 2697.65 855.453 2665.43 762.252 2583.65C732.34 2557.4 702.173 2530.18 681.616 2498.67C679.35 2495.2 680.907 2494.3 682.86 2491.53C695.448 2484.83 736.331 2476.86 751.881 2475C834.921 2465.08 901.985 2479.87 969.287 2517C992.236 2530.44 1012.92 2546.26 1036.71 2559.7C1023.98 2545.92 1005.14 2524.58 991.405 2512.14C938.458 2454.12 904.898 2406.8 858.406 2346.12Z"/><path fill="#FEFEFE" fill-opacity="0.26666668" d="M750.779 1114.34C750.917 1113.92 751.054 1113.5 751.191 1113.07C793.753 1038.67 899.908 966.598 1010.27 972.926C1011.97 973.023 1014.02 973.942 1015.55 974.556C1020.41 982.601 1003.19 1019.66 998.217 1029.75C960.235 1106.81 894.752 1174.6 796.024 1209.07C765.194 1219.83 739.252 1225.76 707.323 1232.77C691.313 1274.12 673.796 1393.25 673.905 1435.5C670.805 1453.54 671.683 1484.23 672.032 1502.95C673.472 1498.77 678.985 1484.27 678.872 1480.94C702.409 1393.88 743.044 1325.74 841.342 1273.89C854.21 1267.1 896.053 1248.22 910.881 1249.46C924.009 1259.32 906.826 1316.39 902.964 1331.73C873.691 1448.02 797.399 1531.45 672.949 1598.72C674.602 1666.68 681.951 1734.47 694.95 1801.68C698.599 1821.16 703.492 1850.09 709.481 1868.31L708.387 1876.46C702.421 1863.19 697.81 1834.18 694.398 1819.5C677.085 1745.03 673.099 1673.1 668.775 1597.71C802.9 1523.2 875.741 1440.1 904.07 1313.79C909.357 1290.21 911.463 1274.49 911.181 1250.39C787.587 1284.41 713.056 1368.95 687.291 1465.89C682.986 1482.08 676.86 1504.43 669.755 1519.61L668.686 1521.84C661.673 1442 678.933 1329.54 697.113 1249.83C697.92 1246.29 703.679 1233.25 705.954 1232.06C723.691 1223.76 747.409 1220.36 767.077 1214.95C901.361 1178.07 983.824 1080.93 1014.06 975.704C916.629 973.596 845.309 1012.24 787.091 1070.99C774.408 1083.79 765.186 1099.51 752.934 1112.14L750.779 1114.34Z"/><path fill="#FEFEFE" fill-opacity="0.21568628" d="M2901.85 2591.74C2904.75 2579.55 2892.91 2529.28 2891.24 2511.92C2880.31 2398.82 2893.83 2282.68 2976.37 2185.64C2983.87 2176.81 2994.15 2161.55 3004.41 2155.12L3009.73 2155.94C3020.8 2162.88 3029.96 2188.12 3034.19 2200.99C3062.58 2287.49 3053.37 2386.38 3009.05 2468.7C3005.65 2475.03 2989.92 2499.67 2991.28 2503.66C2992.04 2503.42 2992.79 2503.19 2993.54 2502.96C3039.45 2463.31 3132.11 2354.47 3153.24 2310.14C3158.06 2332.88 2995.91 2519.39 2972.95 2526.07C2969.67 2520.41 2984.81 2504.11 2988.67 2498C3050.65 2399.91 3066.87 2278.06 3019.16 2174.41C3016.37 2168.35 3012.36 2161.7 3008.16 2156.09C2892.9 2260.74 2877.64 2418.67 2900.44 2549.87C2902.21 2560.06 2909.16 2583.23 2903.87 2591.5L2900.63 2592.77L2901.85 2591.74Z"/><path fill="#F5F7F3" fill-opacity="0.37254903" d="M3042.1 2549.09C3116.76 2499.6 3188.52 2464.34 3290.52 2472.42C3318.21 2475.04 3357.02 2478.52 3379.78 2491.48C3385.96 2495 3359.39 2524.09 3355.6 2528.72C3266.99 2636.59 3145.85 2703.23 2978.08 2660.06C2961.8 2655.84 2945.91 2650.76 2930.52 2644.86C2871.62 2691.03 2821.49 2730.97 2753.99 2769.35C2737.59 2777.91 2680.08 2808.9 2665.71 2812.33C2674.45 2805.01 2751.36 2768.14 2771.85 2755.5C2830.73 2719.16 2877.02 2682.93 2929.16 2641.15C3121.29 2714.06 3263.43 2643.39 3364.2 2512.83C3369.35 2506.15 3374.31 2499.95 3378.96 2492.97C3284.38 2456.61 3161.93 2475.8 3084.09 2526.41C3061.47 2541.12 3033.47 2559.86 3009.37 2571.89L3006.3 2573.41C3014.1 2563.26 3023.22 2553.77 3033.52 2545.07C3029.36 2552.55 3026.01 2556.68 3020.67 2563.57C3023.8 2561.52 3040.85 2550.73 3042.1 2549.09Z"/><path fill="#8CA952" d="M2818.78 551.236C2826.42 550.981 2829.96 550.15 2836.02 553.622C2847.57 568.46 2822.16 588.665 2807.26 595.977C2789.63 604.631 2778.02 607.861 2757.6 604.749C2751.48 600.953 2730.79 584.714 2731.36 580.541C2733.87 562.134 2804.83 552.861 2818.78 551.236Z"/><path fill="#A9A9A9" fill-opacity="0.035294119" d="M3276.6 1061.06C3280.71 1049.04 3279.81 1048.89 3277.06 1036.67L3280.18 1037.84C3297.17 1026.95 3276.79 1012.23 3275.48 1007.51C3270.15 988.311 3266.76 935.512 3301.73 932.281C3326.51 941.193 3327.95 980.633 3343.59 994.907C3338.74 994.846 3334.73 993.995 3330.01 993.209C3324.51 980.264 3315.78 953.956 3304.05 945.379C3288.42 942.318 3284.24 958.64 3279.66 967.919C3282.71 982.492 3285.45 993.698 3289.95 1008.02L3290.12 1010.39C3291.29 1029.69 3275.97 1045.49 3288.76 1057.53C3296.07 1059.91 3293.34 1060.36 3298.55 1058.88C3301.44 1054.73 3299.38 1056.2 3304.98 1054.34C3320.25 1093.13 3331.06 1115.41 3334.07 1156.22C3319.93 1126.66 3301.14 1086.11 3276.6 1061.06Z"/><path fill="#A9A9A9" fill-opacity="0.047058824" d="M2370.38 2844.39C2385.46 2845.82 2384.5 2850.41 2403.22 2845.61C2416.33 2842.26 2418.59 2841.82 2429.36 2834.41L2429.79 2828.45C2434.75 2827.03 2432.41 2826.84 2436.99 2828.37C2437.64 2831.38 2437.89 2832.41 2438.91 2835.45C2454.58 2833.51 2465.11 2815.63 2480.82 2829.29C2460.86 2837.58 2320.11 2879.26 2305.83 2877.46C2307.89 2874.72 2363.28 2848.21 2370.38 2844.39Z"/><path fill="#F5F7F3" fill-opacity="0.40000001" d="M1257.37 2393.84C1264.67 2397.17 1274.17 2401.66 1278.6 2407.18C1272.24 2406.14 1265.57 2401.63 1260.04 2398.47C1239.73 2498.5 1263.01 2605.89 1339.35 2689.76C1368.7 2722.01 1397.8 2738.12 1426.17 2764.73C1415.94 2760.53 1406.59 2757.16 1397.59 2751.51L1400.71 2749.53C1399.02 2744.56 1397.22 2744.73 1391.37 2740.58C1386.81 2736.98 1382.18 2733.44 1377.47 2729.96C1262.89 2628.46 1235.29 2525.65 1257.37 2393.84Z"/><path fill="#FEFEFE" fill-opacity="0.14117648" d="M868.779 466.73C872.941 471.132 886.231 507.639 888.414 515.446C910.696 595.133 896.761 672.603 865.609 749.232C870.61 745.089 875.801 740.503 881.413 736.956C873.206 750.248 865.83 758.185 853.335 768.93C859.195 749.651 870.094 726.984 877.017 706.793C894.741 654.169 899.574 599.42 891.261 545.406C887.795 522.088 869.175 483.29 868.779 466.73Z"/><path fill="#6D6D6D" fill-opacity="0.019607844" d="M2193.87 1652.24C2193.75 1633.36 2197.7 1609.32 2199.83 1590.01C2202.44 1566.29 2200.89 1534.62 2209.82 1512.66C2206.92 1552.03 2207.24 1592.17 2206.73 1631.6C2206.51 1648.83 2208.42 1672.25 2206.97 1688.78C2202.26 1676.45 2197.79 1664.76 2193.87 1652.24Z"/><path fill="#FEFEFE" fill-opacity="0.21176471" d="M2637.11 792.474C2641.87 786.051 2668.82 765.668 2678.35 764.981L2681.35 767.179C2677.09 797.81 2645.87 933.892 2658.78 960.01C2662.52 953.906 2664.12 946.37 2667.16 942.848C2668.98 949.135 2660 974.065 2657.61 981.391C2641.16 917.526 2665.24 830.762 2677.98 766.978C2664.12 774.117 2648.88 787.443 2637.11 792.474Z"/><path fill="#A9A9A9" fill-opacity="0.047058824" d="M1045.07 2484L1046.69 2476.87C1051.8 2472.47 1051 2473.83 1060.43 2472.44L1061.75 2474.91C1072.01 2493.79 1095.45 2523.57 1102.38 2539.76L1100.99 2542.07C1091.39 2534.82 1050.89 2493.04 1045.07 2484Z"/><path fill="#FEFEFE" fill-opacity="0.17254902" d="M3319.12 1704.67C3340.8 1727.82 3338.21 1782.25 3345.53 1793.91C3345.01 1803.42 3343.8 1885.03 3345.92 1887.02C3346.66 1885.96 3350.54 1880.28 3351.2 1879.72C3352.05 1889.13 3344.09 1905.97 3339.82 1914.85C3338.01 1893.21 3340.75 1861.57 3341.16 1839.38C3342.08 1789.57 3336.05 1752.52 3319.12 1704.67Z"/><path fill="#FEFEFE" fill-opacity="0.10196079" d="M709.481 1868.31L710.811 1870.66L713.267 1870.46C715.593 1861.75 713.744 1844.31 713.637 1834.59C713.348 1808.27 717.534 1753 732.452 1730.91C730.229 1743.22 727.037 1755.31 724.545 1767.57C715.314 1812.97 721.082 1859.74 720.429 1905.46C715.849 1897.06 709.521 1885.6 708.387 1876.46L709.481 1868.31Z"/><path fill="#FEFEFE" fill-opacity="0.13333334" d="M3387.95 1385.94C3392.18 1403.85 3399.84 1511.78 3392.55 1522.99C3387.58 1518.46 3383.06 1495.43 3381.67 1488.36C3384.43 1492.44 3386.54 1495.72 3389 1499.9C3392.87 1491.21 3385.8 1407.58 3387.95 1385.94Z"/><path fill="#FEFEFE" fill-opacity="0.11372549" d="M639.916 1786.69C644.745 1802.26 656.576 1868.31 656.924 1883.87C646.049 1856.4 638.092 1828.05 627.113 1801.25C631.511 1805.84 631.512 1807.45 637.321 1809.42C640.175 1805.34 639.392 1792.96 639.916 1786.69Z"/><path fill="#FEFEFE" fill-opacity="0.023529412" d="M991.405 2512.14C1005.14 2524.58 1023.98 2545.92 1036.71 2559.7C1012.92 2546.26 992.236 2530.44 969.287 2517L976.906 2512.78C982.653 2513.24 981.975 2513.87 987.331 2516.92L990.364 2516.19L991.405 2512.14Z"/><path fill="#FEFEFE" fill-opacity="0.023529412" d="M3345.53 1793.91C3347.34 1802.62 3350.06 1852 3351.18 1853.17C3356.01 1844.8 3351.19 1820.35 3354.3 1812.02C3359.69 1821.91 3347.21 1827.63 3361.28 1834.4C3358.04 1849.52 3354.68 1864.63 3351.2 1879.72C3350.54 1880.28 3346.66 1885.96 3345.92 1887.02C3343.8 1885.03 3345.01 1803.42 3345.53 1793.91Z"/><path fill="#FEFEFE" fill-opacity="0.14509805" d="M919.03 742.395C918.854 754.145 872.801 809.746 871.111 826.436C874.108 827.754 872.316 827.268 876.66 827.423C871.467 835.235 861.263 841.874 852.614 847.35C862.525 829.438 905.665 753.854 919.03 742.395Z"/><path fill="#FEFEFE" fill-opacity="0.1254902" d="M614.489 1400.6C618.628 1404.01 617.676 1404.93 619.203 1410.29C630.97 1393.84 624.394 1366.81 631.827 1360.23C634.008 1372.82 625.095 1433.68 622.283 1448.18C620.984 1441.04 613.574 1405.41 614.489 1400.6Z"/><path fill="#FEFEFE" fill-opacity="0.098039217" d="M3343.1 1023.4L3352.51 1034.34C3356.61 1029.86 3348.24 961.545 3355.93 954.207C3357.25 974.181 3354.76 994.961 3356.38 1015.18C3357.24 1025.91 3363.71 1047.82 3360.69 1057.33C3354.66 1053.96 3345.05 1030.18 3343.1 1023.4Z"/><path fill="#FEFEFE" fill-opacity="0.10588235" d="M1054.49 541.987C1065.89 524.411 1078.32 508.197 1091.11 491.227L1092.97 498.736C1098.95 500.862 1095.7 500.192 1103.52 499.32C1088.52 513.489 1071.34 529.258 1054.49 541.987Z"/><path fill="#FEFEFE" fill-opacity="0.18039216" d="M761.835 2198.65L763.895 2200.73C771.253 2208.31 775.385 2217.81 783.67 2224.18C788.072 2223.63 786.345 2224.27 789.117 2222.8C793.907 2225.38 808.378 2259.71 811.287 2266.29C793.784 2247.22 775.412 2221.86 759.708 2201.35L761.835 2198.65Z"/><path fill="#FEFEFE" fill-opacity="0.10588235" d="M832.801 2191.16L845.376 2190.02C850.382 2208.12 861.028 2228.31 864.321 2245.44C857.628 2242.56 835.206 2198.2 832.801 2191.16Z"/><path fill="#FEFEFE" fill-opacity="0.12156863" d="M3431.66 1371.02C3436.57 1380.72 3438.94 1395.13 3440.21 1405.65L3442.61 1402.26L3440.06 1402.15C3446.51 1398.47 3449.06 1387.75 3452.3 1380.41C3451.57 1389.05 3446.43 1424.71 3441.29 1430.64C3434.28 1425.14 3431.82 1380.71 3431.66 1371.02Z"/><path fill="#FEFEFE" fill-opacity="0.14509805" d="M1046.12 597.701C1053.98 587.033 1082.86 556.73 1094.81 550.26C1094.45 555.376 1084.51 562.676 1079.59 566.82L1078.64 570.674C1082.22 574.67 1080.18 572.874 1086.48 575.28C1082.54 579.205 1053.35 593.974 1046.12 597.701Z"/><path fill="#FEFEFE" fill-opacity="0.06666667" d="M3296.71 2204.95C3291.01 2212.19 3274.49 2234.59 3266.88 2239.01C3266.04 2230.71 3276.62 2212.53 3281.04 2204.55C3286.04 2204.63 3291.81 2204.58 3296.71 2204.95Z"/><path fill="#FEFEFE" fill-opacity="0.070588239" d="M1356.57 315.198C1353.94 321.887 1350.58 325.495 1353.54 330.412L1358.53 332.53C1353.57 335.917 1321.09 351.124 1313.56 354.779C1326.39 341.585 1342.48 327.782 1356.57 315.198Z"/><path fill="#FEFEFE" fill-opacity="0.12941177" d="M1356.01 2791.49C1360.41 2793.53 1364.17 2796.22 1368.2 2795.92C1378.54 2801.36 1391.91 2807.65 1399.85 2814.76L1398.9 2815.98C1384.89 2812.82 1365.16 2804.31 1351.12 2799.04L1356.01 2791.49Z"/><path fill="#FEFEFE" fill-opacity="0.10196079" d="M2647.76 2762.26C2659.58 2749.59 2672.97 2737.85 2687.73 2727.2L2681.89 2736.84L2683.85 2738.98L2692.76 2739.05C2678.99 2748.03 2663.56 2755.66 2647.76 2762.26Z"/><path fill="#FEFEFE" fill-opacity="0.19215687" d="M3416.21 1810.58C3418.1 1822.12 3414.7 1832.62 3413.35 1844.24C3415.75 1838.93 3418.83 1830.18 3423.45 1826.39C3423.46 1834.38 3410.13 1861.84 3405.98 1870.22C3403.31 1859.81 3412.67 1821.88 3416.21 1810.58Z"/><path fill="#FEFEFE" fill-opacity="0.078431375" d="M1718.95 2855.54L1758.65 2875.34L1757.58 2876.3C1745.18 2875.74 1738.57 2873.12 1726.78 2870.35C1723.15 2863.04 1726.28 2863.61 1718.95 2855.54Z"/><path fill="#FEFEFE" fill-opacity="0.054901961" d="M3420.1 1793.47C3420.8 1800.58 3421.13 1804.73 3420.68 1811.81L3422.6 1813.56C3427.39 1810.33 3428.59 1809.16 3432.61 1805.5C3429.73 1812.21 3426.71 1819.86 3423.45 1826.39C3418.83 1830.18 3415.75 1838.93 3413.35 1844.24C3414.7 1832.62 3418.1 1822.12 3416.21 1810.58C3416.18 1805.79 3418.71 1798.37 3420.1 1793.47Z"/><path fill="#FEFEFE" fill-opacity="0.27450982" d="M3171.83 577.41C3175.58 579.821 3175.05 578.856 3177.07 581.929C3172.83 586.278 3162.33 597.984 3157.25 600.455L3153.42 598.412L3146.91 600.129C3150.96 595.272 3166.16 582.416 3171.83 577.41Z"/><path fill="#FEFEFE" fill-opacity="0.14509805" d="M3216.65 2188.66L3216.66 2191.62C3216.62 2199.18 3212.96 2202.62 3215.69 2208.89L3218.75 2210.61C3214.8 2218.83 3213.27 2220.79 3207.12 2228.21L3205.85 2227.08C3206.62 2216.5 3211.43 2198.33 3216.65 2188.66Z"/><path fill="#F5F7F3" fill-opacity="0.3882353" d="M3202.19 554.102C3197.23 561.081 3185.07 577.492 3177.07 581.929C3175.05 578.856 3175.58 579.821 3171.83 577.41C3180.53 568.331 3190.76 561.053 3202.19 554.102Z"/><path fill="#FEFEFE" fill-opacity="0.14901961" d="M2725.19 332.928C2734.47 337.413 2748.83 351.409 2755.82 358.27C2748.16 355.086 2726.21 346.422 2720.37 342.95L2726.66 343.546L2730.05 341.185L2728.12 343.586C2731.14 343.157 2729.87 343.741 2731.8 341.695C2727.71 337.887 2726.54 337.871 2725.19 332.928Z"/><path fill="#FEFEFE" fill-opacity="0.074509807" d="M673.905 1435.5L674.073 1437.17C674.778 1445.15 672.205 1480.16 676.302 1482.99L678.872 1480.94C678.985 1484.27 673.472 1498.77 672.032 1502.95C671.683 1484.23 670.805 1453.54 673.905 1435.5Z"/><path fill="#FEFEFE" fill-opacity="0.11764706" d="M3033.52 2545.07C3037.09 2541.21 3041.26 2537.55 3045.22 2533.9C3043.2 2538.21 3041.54 2541.87 3039.86 2546.26L3042.1 2549.09C3040.85 2550.73 3023.8 2561.52 3020.67 2563.57C3026.01 2556.68 3029.36 2552.55 3033.52 2545.07Z"/><path fill="#FEFEFE" fill-opacity="0.05882353" d="M1377.47 2729.96C1382.18 2733.44 1386.81 2736.98 1391.37 2740.58L1384.99 2743.97C1379.67 2740.83 1374.4 2737.65 1369.17 2734.43L1374.69 2733.57L1377.47 2729.96Z"/><path fill="#FEFEFE" fill-opacity="0.18039216" d="M1391.37 2740.58C1397.22 2744.73 1399.02 2744.56 1400.71 2749.53L1397.59 2751.51L1384.99 2743.97L1391.37 2740.58Z"/></svg>